<svg id="Layer_1" data-name="Layer 1" xmlns="http://www.w3.org/2000/svg" xmlns:xlink="http://www.w3.org/1999/xlink" viewBox="0 0 50.22 50.24"><defs><style>.cls-1{fill:url(#linear-gradient);}.cls-2{fill:url(#linear-gradient-2);}.cls-3{fill:url(#linear-gradient-3);}.cls-4{fill:url(#linear-gradient-4);}.cls-5{fill:url(#linear-gradient-5);}.cls-6{fill:url(#linear-gradient-6);}</style><linearGradient id="linear-gradient" y1="30.81" x2="33.8" y2="30.81" gradientUnits="userSpaceOnUse"><stop offset="0" stop-color="#0d1126"/><stop offset="0" stop-color="#301748"/><stop offset="1" stop-color="#ffc000"/></linearGradient><linearGradient id="linear-gradient-2" x1="29.25" y1="10.06" x2="50.22" y2="10.06" xlink:href="#linear-gradient"/><linearGradient id="linear-gradient-3" x1="13.61" y1="29.88" x2="22.07" y2="29.88" xlink:href="#linear-gradient"/><linearGradient id="linear-gradient-4" x1="15.75" y1="11.83" x2="26.8" y2="11.83" xlink:href="#linear-gradient"/><linearGradient id="linear-gradient-5" x1="6.52" y1="40.68" x2="12.69" y2="40.68" xlink:href="#linear-gradient"/><linearGradient id="linear-gradient-6" x1="8.92" y1="16.81" x2="13.56" y2="16.81" xlink:href="#linear-gradient"/></defs><path class="cls-1" d="M33.48,15.05a43.91,43.91,0,0,0-5.41,2.58,51.47,51.47,0,0,0-7.45,5.07,59.49,59.49,0,0,0-7.83,7.72A71.26,71.26,0,0,0,4.54,42.65C3.28,45,2.16,47.35,1.12,49.77c-.09.2-.18.39-.41.45A.54.54,0,0,1,0,49.65c.05-.79.12-1.59.23-2.37.2-1.4.38-2.8.66-4.19A41,41,0,0,1,4.1,33c.34-.68.7-1.34,1.1-2a2.88,2.88,0,0,0,.22-.38A.5.5,0,0,0,5,29.91c-.41,0-.83,0-1.24,0A.68.68,0,0,1,3,29.59c-.17-.3,0-.51.18-.72a46,46,0,0,1,3.15-3.68,44.55,44.55,0,0,1,9.17-7.37A49.28,49.28,0,0,1,25,13.38a54.64,54.64,0,0,1,7.32-2,13,13,0,0,1,1.3,1.27.85.85,0,0,1,.22.7A10.82,10.82,0,0,1,33.48,15.05Z"/><path class="cls-2" d="M33.48,15.05a10.82,10.82,0,0,0,.31-1.7.85.85,0,0,0-.22-.7,13,13,0,0,0-1.3-1.27l-2.6-2.57a1.2,1.2,0,0,1-.41-.71,1.09,1.09,0,0,1,1-1.23c1.68-.24,3.36-.5,5-.72a1.49,1.49,0,0,0,1.26-.94c.72-1.53,1.47-3,2.23-4.57A1.07,1.07,0,0,1,40.48.31a1.32,1.32,0,0,1,.29.42c.73,1.48,1.49,2.93,2.16,4.43.37.84,1,1,1.79,1,1.52.2,3,.44,4.55.65a1,1,0,0,1,.91.78,1.16,1.16,0,0,1-.36,1.19c-1.25,1.19-2.47,2.4-3.71,3.6a1.26,1.26,0,0,0-.38,1.19c.28,1.6.57,3.2.84,4.8a1.86,1.86,0,0,1,0,1A1.1,1.1,0,0,1,45,20l-4.6-2.43a1.25,1.25,0,0,0-1.28,0c-1.5.81-3,1.58-4.54,2.37a1.08,1.08,0,0,1-1.26,0,1.17,1.17,0,0,1-.41-1.25c.2-1.09.39-2.19.58-3.28A1.67,1.67,0,0,0,33.48,15.05Z"/><path class="cls-3" d="M22.07,26.14a1.11,1.11,0,0,1-.36.69,68,68,0,0,0-6.55,7,3,3,0,0,1-.24.26.69.69,0,0,1-1,.08.77.77,0,0,1-.15-1.1c.3-.38.62-.75.94-1.13,1.65-1.93,3.35-3.81,5.19-5.58.28-.27.58-.54.88-.8a.69.69,0,0,1,.81-.1A1,1,0,0,1,22.07,26.14Z"/><path class="cls-4" d="M26,9.32a.76.76,0,0,1,.83.63.72.72,0,0,1-.56.87c-1,.28-2.1.56-3.13.9A45.87,45.87,0,0,0,17.35,14c-.16.08-.33.17-.5.24a.73.73,0,0,1-1-.39.73.73,0,0,1,.38-1c1.15-.57,2.32-1.09,3.51-1.57a47.08,47.08,0,0,1,5.89-1.92A2.93,2.93,0,0,1,26,9.32Z"/><path class="cls-5" d="M12.69,36.81a1.36,1.36,0,0,1-.31.7q-1.71,2.43-3.16,5c-.37.64-.71,1.3-1.06,1.95a3.84,3.84,0,0,1-.27.49.74.74,0,0,1-1,.24.8.8,0,0,1-.32-1c.35-.71.71-1.42,1.1-2.11a65.31,65.31,0,0,1,3.54-5.61.71.71,0,0,1,.87-.36A.79.79,0,0,1,12.69,36.81Z"/><path class="cls-6" d="M9.66,18.69A.75.75,0,0,1,9,18.21a.68.68,0,0,1,.16-.83,13.86,13.86,0,0,1,1.56-1.21c.53-.38,1.07-.73,1.62-1.08a.75.75,0,0,1,1.1.2.72.72,0,0,1-.26,1.06c-.89.6-1.78,1.19-2.62,1.85C10.28,18.41,10.05,18.69,9.66,18.69Z"/></svg>