<svg id="Layer_1" data-name="Layer 1" xmlns="http://www.w3.org/2000/svg" xmlns:xlink="http://www.w3.org/1999/xlink" viewBox="0 0 56.42 50.06"><defs><style>.cls-1{fill:url(#linear-gradient);}.cls-2{fill:url(#linear-gradient-2);}.cls-3{fill:url(#linear-gradient-3);}.cls-4{fill:url(#linear-gradient-4);}</style><linearGradient id="linear-gradient" x1="9.93" y1="28.45" x2="41.3" y2="28.45" gradientUnits="userSpaceOnUse"><stop offset="0" stop-color="#ffc000"/><stop offset="1" stop-color="#301748"/><stop offset="1" stop-color="#0d1126"/></linearGradient><linearGradient id="linear-gradient-2" x1="39.67" y1="38.6" x2="56.42" y2="38.6" xlink:href="#linear-gradient"/><linearGradient id="linear-gradient-3" x1="9.44" y1="4.71" x2="18.86" y2="4.71" xlink:href="#linear-gradient"/><linearGradient id="linear-gradient-4" x1="0" y1="45.35" x2="9.42" y2="45.35" xlink:href="#linear-gradient"/></defs><path class="cls-1" d="M25.63,44.13c-.44-.08-.47-.51-.63-.79A34.75,34.75,0,0,0,12.38,30c-.54-.33-1.12-.6-1.64-.94-.28-.19-.79-.18-.81-.6s.48-.48.77-.63a34.44,34.44,0,0,0,7.64-5.54A34.58,34.58,0,0,0,25,13.45c.13-.26.18-.68.56-.69s.42.44.56.69A34.84,34.84,0,0,0,40.61,27.88c.25.14.69.16.69.55s-.44.4-.69.54A34.84,34.84,0,0,0,26.16,43.4C26,43.66,26,44,25.63,44.13Z"/><path class="cls-2" d="M48.05,47c-.23,0-.25-.27-.33-.43A18.59,18.59,0,0,0,41,39.42c-.29-.17-.59-.32-.87-.5s-.42-.1-.44-.32.26-.26.41-.34a18,18,0,0,0,4.08-2.95,18.34,18.34,0,0,0,3.58-4.72c.07-.13.09-.36.3-.36s.22.23.29.37a18.58,18.58,0,0,0,7.72,7.69c.13.08.36.09.37.3s-.24.21-.37.28a18.6,18.6,0,0,0-7.71,7.71C48.26,46.71,48.25,46.91,48.05,47Z"/><path class="cls-3" d="M14.15,9.42c-.13,0-.14-.15-.18-.24a10.46,10.46,0,0,0-3.8-4l-.49-.28c-.08-.06-.23,0-.24-.18s.14-.14.23-.19A10.44,10.44,0,0,0,12,2.86,10.6,10.6,0,0,0,14,.21c0-.08,0-.21.17-.21s.12.13.16.21a10.53,10.53,0,0,0,4.34,4.33c.08,0,.21,0,.21.16s-.13.12-.21.17A10.47,10.47,0,0,0,14.31,9.2C14.27,9.28,14.27,9.39,14.15,9.42Z"/><path class="cls-4" d="M4.71,50.06c-.13,0-.14-.16-.18-.24a10.46,10.46,0,0,0-3.8-4l-.49-.28c-.08-.06-.23-.06-.24-.18s.14-.15.23-.19A10.71,10.71,0,0,0,2.52,43.5a10.28,10.28,0,0,0,2-2.66c0-.07,0-.2.17-.2s.12.13.16.2a10.49,10.49,0,0,0,4.34,4.34c.08,0,.21,0,.21.16s-.13.12-.21.16a10.55,10.55,0,0,0-4.34,4.34C4.83,49.91,4.83,50,4.71,50.06Z"/></svg>