<svg id="Layer_1" data-name="Layer 1" xmlns="http://www.w3.org/2000/svg" xmlns:xlink="http://www.w3.org/1999/xlink" viewBox="0 0 33.32 44.6"><defs><style>.cls-1{fill:url(#linear-gradient);}.cls-2{fill:url(#linear-gradient-2);}.cls-3{fill:url(#linear-gradient-3);}.cls-4{fill:url(#linear-gradient-4);}</style><linearGradient id="linear-gradient" x1="17.17" y1="23.75" x2="32.42" y2="23.75" gradientUnits="userSpaceOnUse"><stop offset="0" stop-color="#ffc000"/><stop offset="1" stop-color="#301748"/><stop offset="1" stop-color="#0d1126"/></linearGradient><linearGradient id="linear-gradient-2" x1="1.79" y1="48.92" x2="30.06" y2="28.45" xlink:href="#linear-gradient"/><linearGradient id="linear-gradient-3" x1="0.86" y1="20.85" x2="16.15" y2="20.85" gradientUnits="userSpaceOnUse"><stop offset="0" stop-color="#0d1126"/><stop offset="0" stop-color="#301748"/><stop offset="1" stop-color="#ffc000"/></linearGradient><linearGradient id="linear-gradient-4" x1="-564.42" y1="-6106.7" x2="-536.16" y2="-6127.17" gradientTransform="translate(-532.9 -6111.02) rotate(180)" xlink:href="#linear-gradient"/></defs><path class="cls-1" d="M29.46,34.64a6.32,6.32,0,0,0-2.19-7.79c-4.4-3.4-9.4-5-10-8.39s1.4-5.8,4.6-5.6,7.34,3.42,9,7.6S33.86,29.25,29.46,34.64Z"/><path class="cls-2" d="M26.36,26.18s5.3,2.67,3.1,8.46c0,0-5.2,7.8-25.48,9.8,0,0-7.69,1-1.69-2C2.29,42.44,26.05,33.1,26.36,26.18Z"/><path class="cls-3" d="M3.85,10a6.34,6.34,0,0,0,2.2,7.8c4.4,3.39,9.39,5,10,8.39s-1.39,5.79-4.59,5.59-7.31-3.57-9-7.59S-.54,15.35,3.85,10Z"/><path class="cls-4" d="M7,18.42A6.67,6.67,0,0,1,3.85,10S9.06,2.16,29.34.16c0,0,7.69-1,1.69,2C31,2.16,7.27,11.49,7,18.42Z"/></svg>