<svg id="Layer_1" data-name="Layer 1" xmlns="http://www.w3.org/2000/svg" xmlns:xlink="http://www.w3.org/1999/xlink" viewBox="0 0 33.76 59.42"><defs><style>.cls-1{fill:url(#linear-gradient);}.cls-2{fill:url(#linear-gradient-2);}</style><linearGradient id="linear-gradient" x1="-1861.13" y1="437.36" x2="-1813.02" y2="437.36" gradientTransform="translate(1079.06 -1529.72) rotate(-42.4)" gradientUnits="userSpaceOnUse"><stop offset="0" stop-color="#0d1126"/><stop offset="0" stop-color="#301748"/><stop offset="1" stop-color="#ffc000"/></linearGradient><linearGradient id="linear-gradient-2" x1="-1856.47" y1="450.27" x2="-1842.93" y2="450.27" gradientTransform="translate(1079.06 -1529.72) rotate(-42.4)" gradientUnits="userSpaceOnUse"><stop offset="0" stop-color="#ffc000"/><stop offset="1" stop-color="#301748"/><stop offset="1" stop-color="#0d1126"/></linearGradient></defs><path class="cls-1" d="M22.47,2a18.32,18.32,0,0,1,2.89,4.43,41.37,41.37,0,0,1,3.1,10.13,60.84,60.84,0,0,1,1,11.59,1.16,1.16,0,0,0,.61,1.05c.77.52,1.55,1,2.3,1.58a3,3,0,0,1,1.38,2.69c-.22,5.38-.48,10.75-.72,16.13,0,.07,0,.15,0,.22-.1.78-.65,1-1.27.54-1.1-.85-2.17-1.72-3.25-2.59s-2.08-1.68-3.13-2.5a3.67,3.67,0,0,1-1.48-2.8c0-.5-.23-.7-.73-.73l-12.64-.57c-.47,0-.67.14-.74.58a3.89,3.89,0,0,1-1.91,2.85c-2.13,1.37-4.24,2.79-6.36,4.18l-.06,0c-.33.2-.66.47-1.08.25S0,48.39,0,48c.13-3.07.28-6.14.42-9.22q.15-3.29.29-6.57a3.26,3.26,0,0,1,1.86-3c.74-.4,1.47-.84,2.22-1.23a1.72,1.72,0,0,0,1-1.5A64.25,64.25,0,0,1,7,18.71a55.3,55.3,0,0,1,2.42-8.28,27.88,27.88,0,0,1,3.7-7,9.18,9.18,0,0,1,3.49-3,4.59,4.59,0,0,1,4.88.67C21.85,1.38,22.2,1.72,22.47,2Zm-.6,9.45a5,5,0,1,0-.28,7A5,5,0,0,0,21.87,11.41Z"/><path class="cls-2" d="M15.82,59.1c-.4-.81-.85-1.6-1.2-2.42a32,32,0,0,1-2.4-8.8c-.1-.88-.11-1.78-.13-2.67,0-.47.15-.65.63-.68a10.11,10.11,0,0,1,1.1,0l6.5.3c1.16,0,1.21.16,1.16,1.31a16.68,16.68,0,0,1-1.91,6.76c-1,2-1.84,4-2.74,6-.28.62-.48.65-.92.14Z"/></svg>