<svg id="Layer_1" data-name="Layer 1" xmlns="http://www.w3.org/2000/svg" xmlns:xlink="http://www.w3.org/1999/xlink" viewBox="0 0 41.36 41.42"><defs><style>.cls-1{fill:url(#linear-gradient);}.cls-2{fill:url(#linear-gradient-2);}</style><linearGradient id="linear-gradient" y1="20.71" x2="41.36" y2="20.71" gradientUnits="userSpaceOnUse"><stop offset="0" stop-color="#0d1126"/><stop offset="0" stop-color="#301748"/><stop offset="1" stop-color="#ffc000"/></linearGradient><linearGradient id="linear-gradient-2" x1="4.01" y1="31.8" x2="15.65" y2="31.8" gradientUnits="userSpaceOnUse"><stop offset="0" stop-color="#ffc000"/><stop offset="1" stop-color="#301748"/><stop offset="1" stop-color="#0d1126"/></linearGradient></defs><path class="cls-1" d="M41.36,4.7a16,16,0,0,1-.74,4.49,35.46,35.46,0,0,1-3.9,8.23,52.54,52.54,0,0,1-6.08,7.94,1,1,0,0,0-.22,1c.18.78.38,1.55.55,2.34a2.64,2.64,0,0,1-.69,2.51c-3.26,3.28-6.54,6.54-9.81,9.82l-.14.12c-.52.44-1,.28-1.12-.39-.2-1.17-.38-2.35-.56-3.53s-.35-2.27-.54-3.4a3.2,3.2,0,0,1,.68-2.63.56.56,0,0,0,0-.89q-3.84-3.84-7.69-7.69a.51.51,0,0,0-.8-.06,3.34,3.34,0,0,1-2.87.7c-2.15-.36-4.31-.68-6.46-1H.87c-.33-.07-.7-.09-.83-.47s.13-.63.37-.87L6,15.3l4-4a2.83,2.83,0,0,1,2.89-.8c.7.19,1.41.32,2.12.51a1.47,1.47,0,0,0,1.5-.37,55.75,55.75,0,0,1,5.28-4.28,46.93,46.93,0,0,1,6.33-3.86A24,24,0,0,1,34.54.2a7.86,7.86,0,0,1,4,.11,4,4,0,0,1,2.71,3.25C41.3,4,41.32,4.39,41.36,4.7ZM35.5,10.35a4.3,4.3,0,1,0-4.26,4.31A4.29,4.29,0,0,0,35.5,10.35Z"/><path class="cls-2" d="M4,37.12c.21-.74.39-1.5.65-2.23a27.19,27.19,0,0,1,3.57-7c.45-.62,1-1.2,1.46-1.78.27-.31.48-.32.8-.06a8.3,8.3,0,0,1,.69.64l4,4c.71.7.68.8,0,1.5A14.35,14.35,0,0,1,10,35.37C8.21,36,6.49,36.84,4.75,37.6c-.53.23-.68.13-.66-.45Z"/></svg>