<svg id="Layer_1" data-name="Layer 1" xmlns="http://www.w3.org/2000/svg" xmlns:xlink="http://www.w3.org/1999/xlink" viewBox="0 0 51.21 48.94"><defs><style>.cls-1{fill:url(#linear-gradient);}.cls-2{fill:url(#linear-gradient-2);}.cls-3{fill:url(#linear-gradient-3);}.cls-4{fill:#2a607a;}.cls-5{fill:#deddf2;}.cls-6{fill:#ec6d3b;}.cls-7{fill:url(#linear-gradient-4);}.cls-8{fill:url(#linear-gradient-5);}.cls-9{fill:url(#linear-gradient-6);}.cls-10{fill:url(#linear-gradient-7);}</style><linearGradient id="linear-gradient" x1="21.18" y1="9.98" x2="38.09" y2="9.98" gradientUnits="userSpaceOnUse"><stop offset="0" stop-color="#0d1126"/><stop offset="0" stop-color="#301748"/><stop offset="1" stop-color="#ffc000"/></linearGradient><linearGradient id="linear-gradient-2" x1="30.04" y1="17.92" x2="51.21" y2="17.92" xlink:href="#linear-gradient"/><linearGradient id="linear-gradient-3" x1="28.15" y1="22.3" x2="37.37" y2="22.3" xlink:href="#linear-gradient"/><linearGradient id="linear-gradient-4" x1="0.99" y1="39.47" x2="38.89" y2="39.47" xlink:href="#linear-gradient"/><linearGradient id="linear-gradient-5" x1="18.41" y1="16.06" x2="21.4" y2="16.06" xlink:href="#linear-gradient"/><linearGradient id="linear-gradient-6" x1="5.61" y1="5.16" x2="12.58" y2="5.16" gradientUnits="userSpaceOnUse"><stop offset="0" stop-color="#ffc000"/><stop offset="1" stop-color="#301748"/><stop offset="1" stop-color="#0d1126"/></linearGradient><linearGradient id="linear-gradient-7" x1="0" y1="21.19" x2="3.92" y2="21.19" xlink:href="#linear-gradient-6"/></defs><path class="cls-1" d="M21.22,1.52H36.48a1.58,1.58,0,0,1,1.57,1.16,1.6,1.6,0,0,1,0,.43V9.47c0,2.46,0,4.92,0,7.38a1.53,1.53,0,0,1-.34,1c-.12.14-.33.19-.37.4l-.39.12c-.07-.07-.09,0-.1,0a3.64,3.64,0,0,1-.81.05H28.15l-.21,0H21.21c0-.1,0-.21,0-.31V1.85c0-.11,0-.21,0-.32Z"/><path class="cls-2" d="M37.37,18.22c0-.21.25-.26.37-.4a1.53,1.53,0,0,0,.34-1c0-2.46,0-4.92,0-7.38H49.58a1.45,1.45,0,0,1,1.56,1.07,1.5,1.5,0,0,1-.2,1.28l-3.35,5.85a.42.42,0,0,0,0,.48q1.65,2.86,3.28,5.73a2,2,0,0,1,.33,1,1.53,1.53,0,0,1-1.44,1.49H30.28l-.24,0a3.25,3.25,0,0,0,.72-.46c.37-.45.75-.89,1.14-1.33.89-1,1.79-2.06,2.69-3.08s1.71-1.93,2.55-2.9C37.23,18.48,37.36,18.38,37.37,18.22Z"/><path class="cls-3" d="M37.37,18.22c0,.16-.14.26-.23.36-.84,1-1.7,1.93-2.55,2.9s-1.8,2.05-2.69,3.08c-.39.44-.77.88-1.14,1.33a3.25,3.25,0,0,1-.72.46,2.91,2.91,0,0,1-.66,0,.18.18,0,0,0-.23-.08l-.07,0c0-.07-.08-.12-.16-.09a.81.81,0,0,1-.41-.32c0-.09,0-.17-.13-.18l0-.08a.08.08,0,0,0-.08-.11l0-.12a.32.32,0,0,0-.08-.31c0-.83,0-1.65,0-2.47V18.44h7.92a3.64,3.64,0,0,0,.81-.05s.08,0,.1,0Z"/><path class="cls-4" d="M21.22,1.52h0c-.07-.07,0-.16,0-.24"/><path class="cls-5" d="M19,31.34l.57.2A.51.51,0,0,1,19,31.34Z"/><path class="cls-6" d="M28.16,25a.32.32,0,0,1,.08.31A.28.28,0,0,1,28.16,25Z"/><path class="cls-5" d="M18.22,30.35a.23.23,0,0,1,.09.23C18.19,30.54,18.18,30.45,18.22,30.35Z"/><path class="cls-6" d="M28.38,25.66c.1,0,.13.09.13.18A.17.17,0,0,1,28.38,25.66Z"/><path class="cls-6" d="M29.15,26.27a.18.18,0,0,1,.23.08A.19.19,0,0,1,29.15,26.27Z"/><path class="cls-6" d="M28.92,26.16c.08,0,.13,0,.16.09S29,26.22,28.92,26.16Z"/><path class="cls-5" d="M18.4,30.79a.18.18,0,0,1,.1.16C18.36,31,18.39,30.87,18.4,30.79Z"/><path class="cls-6" d="M28.27,25.47a.08.08,0,0,1,.08.11C28.29,25.57,28.25,25.54,28.27,25.47Z"/><path class="cls-5" d="M18.34,30.67a.09.09,0,0,1,.06.1C18.34,30.76,18.26,30.76,18.34,30.67Z"/><path class="cls-5" d="M18.5,30.94a.13.13,0,0,1,.1.11C18.52,31.06,18.48,31,18.5,30.94Z"/><path class="cls-5" d="M18.68,31.14a.13.13,0,0,1,.12.1C18.72,31.25,18.68,31.22,18.68,31.14Z"/><path class="cls-5" d="M18.82,31.25c.06,0,.09,0,.12.09S18.83,31.33,18.82,31.25Z"/><path class="cls-4" d="M20,31.51c0-.09.09-.16.2-.07A.16.16,0,0,1,20,31.51Z"/><path class="cls-4" d="M21.1,30.51c0-.08,0-.16.08-.18A.15.15,0,0,1,21.1,30.51Z"/><path class="cls-4" d="M21,30.75c0-.07,0-.12.08-.13S21.06,30.72,21,30.75Z"/><path class="cls-4" d="M20.81,31c0-.07,0-.11.09-.11A.1.1,0,0,1,20.81,31Z"/><path class="cls-4" d="M20.32,31.4c0-.08.05-.11.12-.08S20.38,31.41,20.32,31.4Z"/><path class="cls-6" d="M37,18.34s0,.05-.1,0S36.91,18.27,37,18.34Z"/><path class="cls-7" d="M1,48.94a19,19,0,0,1,37.9,0Z"/><rect class="cls-8" x="18.41" width="2.99" height="32.12" rx="1.49"/><path class="cls-9" d="M9.1,8.65C9,8.63,9,8.53,9,8.47a7.73,7.73,0,0,0-2.8-3c-.12-.08-.25-.14-.37-.21s-.17,0-.18-.13.11-.11.17-.14A7.69,7.69,0,0,0,7.48,3.8,7.75,7.75,0,0,0,9,1.83c0-.05,0-.15.12-.15s.1.1.13.15A7.76,7.76,0,0,0,12.43,5c.05,0,.15,0,.15.12s-.1.09-.15.12A7.76,7.76,0,0,0,9.22,8.49S9.18,8.63,9.1,8.65Z"/><path class="cls-10" d="M2,23.15c-.05,0-.06-.07-.08-.1A4.28,4.28,0,0,0,.31,21.38L.1,21.26s-.1,0-.1-.07.06-.06.1-.08a4.61,4.61,0,0,0,1-.69,4.51,4.51,0,0,0,.84-1.11s0-.08.07-.08,0,.05.07.08a4.42,4.42,0,0,0,1.8,1.81s.09,0,.09.06-.06.05-.09.07A4.34,4.34,0,0,0,2,23.05S2,23.13,2,23.15Z"/></svg>